<?xml version="1.0" encoding="UTF-8" standalone="no"?>
<!-- Created with Inkscape (http://www.inkscape.org/) -->

<svg
   width="340"
   height="50"
   viewBox="0 0 89.958322 13.229165"
   version="1.1"
   id="svg1"
   inkscape:version="1.3.2 (091e20e, 2023-11-25, custom)"
   sodipodi:docname="checklistmaker_logo_horizontal.svg"
   inkscape:export-filename="logo.png"
   inkscape:export-xdpi="72"
   inkscape:export-ydpi="72"
   xmlns:inkscape="http://www.inkscape.org/namespaces/inkscape"
   xmlns:sodipodi="http://sodipodi.sourceforge.net/DTD/sodipodi-0.dtd"
   xmlns="http://www.w3.org/2000/svg"
   xmlns:svg="http://www.w3.org/2000/svg">
  <sodipodi:namedview
     id="namedview1"
     pagecolor="#ffffff"
     bordercolor="#000000"
     borderopacity="0.25"
     inkscape:showpageshadow="2"
     inkscape:pageopacity="0.0"
     inkscape:pagecheckerboard="0"
     inkscape:deskcolor="#d1d1d1"
     inkscape:document-units="mm"
     showgrid="true"
     showguides="true"
     inkscape:zoom="2.0485264"
     inkscape:cx="182.32618"
     inkscape:cy="135.95139"
     inkscape:window-width="1920"
     inkscape:window-height="1009"
     inkscape:window-x="-8"
     inkscape:window-y="-8"
     inkscape:window-maximized="1"
     inkscape:current-layer="layer2">
    <inkscape:grid
       id="grid4"
       units="mm"
       originx="0"
       originy="0"
       spacingx="0.99999996"
       spacingy="0.99999996"
       empcolor="#0099e5"
       empopacity="0.30196078"
       color="#0099e5"
       opacity="0.14901961"
       empspacing="5"
       dotted="false"
       gridanglex="30"
       gridanglez="30"
       visible="true" />
  </sodipodi:namedview>
  <defs
     id="defs1">
    <inkscape:path-effect
       effect="bspline"
       id="path-effect3"
       is_visible="true"
       lpeversion="1.3"
       weight="33.333333"
       steps="2"
       helper_size="0"
       apply_no_weight="true"
       apply_with_weight="true"
       only_selected="false"
       uniform="false" />
    <rect
       x="3.4170904"
       y="32.218281"
       width="162.79996"
       height="60.043159"
       id="rect2" />
    <rect
       x="1.4644673"
       y="36.367603"
       width="165.24072"
       height="46.618877"
       id="rect1" />
  </defs>
  <g
     inkscape:groupmode="layer"
     id="layer2"
     inkscape:label="Layer 2">
    <path
       style="-inkscape-font-specification:'07LogoTypeGothic7';fill:#312b30;stroke-width:0;stroke-opacity:0.158046"
       d="m 8.7654829,10.168392 q 0,0.25541 -0.234127,0.319262 -0.3937583,0.117066 -0.8300849,0.170274 -0.4256841,0.05321 -0.8726529,0.05321 -0.7875167,0 -1.4260435,-0.266053 Q 4.7746902,10.168385 4.3277216,9.6682069 3.8913951,9.1573871 3.6466265,8.4337256 3.4124999,7.7100643 3.4124999,6.7948448 q 0,-0.9045778 0.2234843,-1.6282392 Q 3.8594686,4.4323015 4.2851529,3.9321243 4.7214794,3.4213045 5.3493637,3.1552524 5.9878906,2.8785585 6.7966917,2.8785585 q 0.4469686,0 0.8726529,0.063848 0.4363265,0.053219 0.8194423,0.159631 0.223483,0.063848 0.223483,0.308621 v 0.074489 q 0,0.1596319 -0.08513,0.2234832 -0.08514,0.053219 -0.2341264,0 Q 7.5948546,3.4425786 6.871192,3.4425786 q -0.5321059,0 -0.9684324,0.2234842 Q 5.477068,3.8895454 5.1684462,4.3152275 4.8598246,4.7409116 4.6895523,5.3687955 4.5192776,5.9966783 4.5192776,6.7948349 q 0,0.7981565 0.1702747,1.4260392 0.1809156,0.6172413 0.5001784,1.053566 0.3192637,0.425683 0.7555907,0.6491673 0.4363251,0.2234836 0.9577902,0.2234836 0.7449469,0 1.5431053,-0.2660515 0.14899,-0.053219 0.234128,0.01068 0.08514,0.053219 0.08514,0.2128425 z M 10.685314,2.7721432 q 0.276695,0 0.276695,0.2766949 V 5.7838528 Q 11.27063,5.4752318 11.685672,5.2943164 12.100717,5.113401 12.57961,5.113401 q 1.032286,0 1.468612,0.5321044 0.446968,0.5321053 0.446968,1.7346604 v 2.9478572 q 0,0.276694 -0.276696,0.276694 h -0.489536 q -0.276694,0 -0.276694,-0.276694 V 7.5185123 q 0,-0.5640296 -0.06385,-0.9258612 -0.06385,-0.3618308 -0.202198,-0.5746724 -0.127706,-0.2128415 -0.329907,-0.2979783 -0.2022,-0.085138 -0.489536,-0.085138 -0.223486,0 -0.478895,0.1489892 -0.244769,0.1383476 -0.457611,0.3831164 -0.202201,0.2341249 -0.340548,0.5427451 -0.127705,0.2979783 -0.127705,0.6065993 v 3.0117096 q 0,0.276695 -0.276695,0.276695 h -0.510822 q -0.2766947,0 -0.2766947,-0.276695 V 3.0488381 q 0,-0.2766959 0.2766947,-0.2766959 z m 8.879771,7.4068908 q 0,0.244768 -0.223485,0.30862 -0.755589,0.223484 -1.511179,0.223484 -1.362189,0 -2.043285,-0.7130196 -0.681094,-0.7130196 -0.681094,-2.0858493 0,-1.4153966 0.649167,-2.1071319 0.659812,-0.6917362 1.862369,-0.6917362 1.181275,0 1.734665,0.6917362 0.564032,0.6917353 0.564032,2.0326378 -0.03193,0.063848 -0.07449,0.1064223 -0.04257,0.042569 -0.09578,0.074487 -0.04257,0.031929 -0.106422,0.031929 h -3.469334 q 0.02129,1.1387017 0.457612,1.6708071 0.446967,0.5214626 1.277052,0.5214626 0.29798,0 0.617242,-0.06385 0.319264,-0.07449 0.713021,-0.2341252 0.329907,-0.1170651 0.329907,0.2128402 z M 18.873349,7.5717229 q 0,-1.0322824 -0.329907,-1.5111762 -0.329904,-0.4788947 -0.925864,-0.4788947 -0.670453,0 -1.032284,0.4788947 -0.361832,0.4788938 -0.415042,1.5111762 z m 5.601997,2.6392371 q 0,0.244767 -0.223483,0.308621 -0.319263,0.09578 -0.65981,0.148989 -0.340548,0.04257 -0.681096,0.04257 -1.319622,0 -1.990075,-0.7236612 -0.670453,-0.7236623 -0.670453,-2.0752066 0,-1.3515443 0.649169,-2.0752067 0.659811,-0.7236614 1.91558,-0.7236614 0.723665,0 1.372832,0.1489892 0.234127,0.042569 0.234127,0.3086201 v 0.031929 q 0,0.1596319 -0.08514,0.2234844 -0.08514,0.053209 -0.234126,0 -0.617242,-0.2021999 -1.234485,-0.2021999 -0.744946,0 -1.138706,0.5533888 -0.383114,0.5533877 -0.383114,1.7346604 0,1.2131978 0.404398,1.7559448 0.415044,0.5321031 1.213201,0.5321031 0.297979,0 0.585316,-0.05322 0.287337,-0.05321 0.606601,-0.1809151 0.148989,-0.053209 0.234127,0 0.08513,0.053209 0.08513,0.2128421 v 0.03193 z m 1.79213,-7.4388168 q 0.276694,0 0.276694,0.2766949 v 4.4271062 l 2.234842,-2.1177745 q 0.148992,-0.1383475 0.351192,-0.1383475 h 0.340546 q 0.191559,0 0.234127,0.1064222 0.04257,0.1064213 -0.09578,0.2341251 l -2.37319,2.2454803 2.415757,2.4583221 q 0.138349,0.138347 0.08514,0.244768 -0.04257,0.09578 -0.223483,0.09578 h -0.361833 q -0.2022,0 -0.340548,-0.138346 L 26.544164,8.1570388 v 2.1709852 q 0,0.276694 -0.276695,0.276694 h -0.489537 q -0.276696,0 -0.276696,-0.276694 V 3.0488391 q 0,-0.2766949 0.276696,-0.2766949 z m 5.580706,0.2128425 q 0.276694,0 0.276694,0.276694 v 6.7683653 h 3.362908 q 0.276696,0 0.276696,0.276693 v 0.02129 q 0,0.276695 -0.276696,0.276695 h -4.224917 q -0.276696,0 -0.276696,-0.276695 V 3.2616822 q 0,-0.276694 0.276696,-0.276694 z m 5.974464,-0.2128425 q 0.276695,0 0.276695,0.2766949 v 0.4363258 q 0,0.2766938 -0.276695,0.2766938 h -0.532105 q -0.276695,0 -0.276695,-0.2766938 V 3.0488381 q 0,-0.2766949 0.276695,-0.2766949 z m 0,2.4476791 q 0.276695,0 0.276695,0.2766938 v 4.8315069 q 0,0.276694 -0.276695,0.276694 h -0.532105 q -0.276695,0 -0.276695,-0.276694 V 5.4965161 q 0,-0.2766938 0.276695,-0.2766938 z m 1.653779,4.8634327 q 0,-0.3405459 0.329904,-0.2021996 0.404402,0.1809156 0.75559,0.2660526 0.361833,0.07449 0.734307,0.07449 0.585316,0 0.872653,-0.212841 0.297979,-0.2234832 0.297979,-0.7449457 0,-0.4469676 -0.255412,-0.7130207 Q 41.966679,8.2740947 41.328151,8.1251056 40.253299,7.8590534 39.806329,7.4865799 39.370004,7.1034648 39.370004,6.5607187 q 0,-0.6385256 0.532103,-1.0429241 0.542749,-0.4043997 1.575035,-0.4043997 0.851367,0 1.649527,0.2447688 0.223484,0.063848 0.223484,0.30862 0,0.1489892 -0.08514,0.2128425 -0.08514,0.053209 -0.234125,0 -0.415043,-0.1489901 -0.776873,-0.2128425 -0.35119,-0.063848 -0.713024,-0.063848 -0.553387,0 -0.830082,0.2021997 -0.276696,0.2021989 -0.276696,0.6917363 0,0.4363248 0.234126,0.6917341 0.234128,0.2447678 0.808802,0.3724735 0.595957,0.1383475 0.989716,0.2979784 0.393758,0.1596319 0.627883,0.3618317 0.244771,0.2021987 0.340549,0.4576082 0.09578,0.2554105 0.09578,0.585316 0,0.6385246 -0.564034,1.0429224 -0.553392,0.404401 -1.60696,0.404401 -0.46825,0 -0.904578,-0.07449 -0.425684,-0.08514 -0.766233,-0.223484 -0.212842,-0.09578 -0.212842,-0.319261 v -0.01068 z m 6.591709,-6.6725862 q 0.276698,0 0.276698,0.2766939 v 1.7453011 h 1.670805 q 0.276701,0 0.276701,0.2766939 0,0.2128415 -0.276701,0.2128415 h -1.670805 v 2.9797844 q 0,0.4150424 0.04255,0.6704519 0.04255,0.2554093 0.138348,0.4043986 0.09578,0.1383479 0.24477,0.1915579 0.159632,0.05322 0.383112,0.05322 0.340553,0 0.670458,-0.10642 0.319259,-0.09578 0.319259,0.223481 0,0.234126 -0.234125,0.276694 -0.202197,0.05322 -0.436326,0.07449 -0.223488,0.02129 -0.446968,0.02129 -0.510824,0 -0.84073,-0.08514 -0.329902,-0.08514 -0.532104,-0.287336 Q 45.450873,10.136471 45.36574,9.8065673 45.29125,9.4660211 45.29125,8.9764847 V 5.9222032 h -0.883295 q -0.276696,0 -0.276696,-0.2766938 0,-0.2128416 0.276696,-0.2128416 H 45.29125 V 3.6873677 q 0,-0.2766949 0.276696,-0.2766949 h 0.500179 z"
       id="text2"
       aria-label="CheckList" />
    <path
       d="m 65.498407,2.9848831 q 0.276701,0 0.276701,0.276701 v 7.0665329 q 0,0.276702 -0.276701,0.276702 h -0.542761 q -0.276701,0 -0.276701,-0.276702 V 4.7302311 l -1.755991,3.362988 q -0.106425,0.202205 -0.329915,0.202205 h -0.595971 q -0.223491,0 -0.329914,-0.202205 l -1.766633,-3.362988 v 5.5978859 q 0,0.276702 -0.276701,0.276702 h -0.510835 q -0.276701,0 -0.276701,-0.276702 V 3.2615841 q 0,-0.276701 0.276701,-0.276701 h 0.606616 q 0.22349,0 0.329913,0.202205 l 2.245539,4.246304 2.234899,-4.246304 q 0.106424,-0.202205 0.329912,-0.202205 z m 1.440975,2.735088 q 0,-0.244775 0.202205,-0.308628 0.415051,-0.148993 0.872674,-0.22349 0.457621,-0.07449 0.925885,-0.07449 0.638543,0 1.064238,0.106425 0.425694,0.106424 0.681112,0.340555 0.266058,0.234132 0.372483,0.617257 0.117068,0.372483 0.117068,0.915244 v 3.2352809 q 0,0.276702 -0.276703,0.276702 h -0.468263 q -0.276701,0 -0.276701,-0.276702 V 9.9875678 q -0.297988,0.3405572 -0.755609,0.5321182 -0.457623,0.191565 -1.03231,0.191565 -0.393767,0 -0.713038,-0.117068 -0.319271,-0.127709 -0.542761,-0.340557 -0.223489,-0.212847 -0.351198,-0.5001912 -0.117068,-0.297987 -0.117068,-0.638543 0,-0.393766 0.170277,-0.7343217 0.180921,-0.3512 0.542761,-0.595973 0.372483,-0.255418 0.936528,-0.393768 0.564046,-0.148993 1.340939,-0.148993 h 0.478906 v -0.36184 q 0,-0.361841 -0.06385,-0.595973 -0.06385,-0.244775 -0.202207,-0.383125 -0.13835,-0.148993 -0.361839,-0.202205 -0.22349,-0.06385 -0.542762,-0.06385 -0.372482,0 -0.787535,0.08514 -0.404409,0.08514 -0.893959,0.266059 -0.148993,0.05322 -0.234132,0 -0.08514,-0.06385 -0.08514,-0.212848 z m 2.692519,1.958196 q -1.926269,0 -1.926269,1.3728647 0,0.542761 0.234132,0.840747 0.244775,0.2979862 0.58533,0.2979862 0.329914,0 0.617258,-0.127708 0.287344,-0.1383502 0.500192,-0.3831252 0.22349,-0.255417 0.340555,-0.606616 0.127708,-0.361839 0.127708,-0.8194617 v -0.574687 z m 3.34596,-4.906132 q 0.276702,0 0.276702,0.276703 v 4.427224 l 2.234897,-2.117831 q 0.148993,-0.138351 0.351198,-0.138351 h 0.340556 q 0.191563,0 0.234133,0.106424 0.04256,0.106425 -0.09578,0.234133 l -2.373248,2.245539 2.415818,2.4583869 q 0.13835,0.138351 0.08514,0.244774 -0.04256,0.09578 -0.22349,0.09578 h -0.361841 q -0.202205,0 -0.340556,-0.138351 L 73.254566,8.1570721 v 2.1710439 q 0,0.276702 -0.276702,0.276702 h -0.489549 q -0.276701,0 -0.276701,-0.276702 V 3.0487371 q 0,-0.276703 0.276701,-0.276703 z m 8.699053,7.4070879 q 0,0.244775 -0.223489,0.308628 -0.755609,0.223492 -1.511217,0.223492 -1.362223,0 -2.043334,-0.7130392 -0.681113,-0.71304 -0.681113,-2.0859057 0,-1.415433 0.649186,-2.107189 0.659826,-0.691752 1.862414,-0.691752 1.181302,0 1.734706,0.691752 0.564045,0.691756 0.564045,2.032694 -0.03193,0.06385 -0.07449,0.106424 -0.04256,0.04256 -0.09578,0.07449 -0.04256,0.03193 -0.106424,0.03193 h -3.469412 q 0.02129,1.1387327 0.457621,1.6708517 0.44698,0.5214762 1.277085,0.5214762 0.297986,0 0.617257,-0.06385 0.319272,-0.07449 0.713038,-0.2341332 0.329914,-0.117068 0.329914,0.2128482 z M 80.98516,7.5717431 q 0,-1.03231 -0.329913,-1.511216 -0.329913,-0.478908 -0.925886,-0.478908 -0.670469,0 -1.03231,0.478908 -0.36184,0.478906 -0.415051,1.511216 z m 5.144512,-2.351963 q 0.170278,0 0.170278,0.276701 v 0.01068 q 0,0.276701 -0.276701,0.276701 h -0.06385 q -1.000382,0 -1.57507,0.574688 -0.564045,0.574687 -0.564045,1.702778 v 2.2668249 q 0,0.276703 -0.276702,0.276703 h -0.542761 q -0.276701,0 -0.276701,-0.276703 V 5.4965191 q 0,-0.276702 0.276701,-0.276702 h 0.500191 q 0.276701,0 0.276701,0.276702 v 0.606615 q 0.340557,-0.393767 0.915244,-0.638542 0.585331,-0.244775 1.266442,-0.244775 h 0.170278 z"
       id="text4"
       style="-inkscape-font-specification:'07LogoTypeGothic7';fill:#312b30;stroke:#312b30;stroke-width:0"
       aria-label="Maker" />
    <g
       id="g1"
       transform="translate(27.076391,-18.740273)">
      <path
         id="rect4"
         style="color:#000000;fill:#312b30;stroke-width:1.73235;-inkscape-stroke:none"
         d="m 23.198837,22.650231 v 6.056163 h 5.880715 v -4.672153 l -1.136933,1.247041 v 2.288183 h -3.603267 v -3.778724 h 2.456489 l 1.041143,-1.14051 z" />
      <path
         style="display:inline;fill:none;fill-opacity:1;stroke:#312b30;stroke-width:1.17621;stroke-dasharray:none;stroke-opacity:1"
         d="m 24.736316,24.697059 1.332192,1.332188 3.04501,-3.378049"
         id="path4" />
    </g>
  </g>
</svg>
