<?xml version="1.0" encoding="UTF-8" standalone="no"?>
<!-- Created with Inkscape (http://www.inkscape.org/) -->

<svg
   width="150pt"
   height="150pt"
   viewBox="0 0 52.916658 52.916662"
   version="1.1"
   id="svg1"
   inkscape:version="1.3.2 (091e20e, 2023-11-25, custom)"
   sodipodi:docname="logo.svg"
   inkscape:export-filename="..\CheckListMaker\Resources\Images\logo.png"
   inkscape:export-xdpi="72"
   inkscape:export-ydpi="72"
   xmlns:inkscape="http://www.inkscape.org/namespaces/inkscape"
   xmlns:sodipodi="http://sodipodi.sourceforge.net/DTD/sodipodi-0.dtd"
   xmlns="http://www.w3.org/2000/svg"
   xmlns:svg="http://www.w3.org/2000/svg">
  <sodipodi:namedview
     id="namedview1"
     pagecolor="#ffffff"
     bordercolor="#000000"
     borderopacity="0.25"
     inkscape:showpageshadow="2"
     inkscape:pageopacity="0.0"
     inkscape:pagecheckerboard="0"
     inkscape:deskcolor="#d1d1d1"
     inkscape:document-units="mm"
     showgrid="true"
     showguides="true"
     inkscape:zoom="2.8970538"
     inkscape:cx="54.365576"
     inkscape:cy="115.46213"
     inkscape:window-width="1920"
     inkscape:window-height="1009"
     inkscape:window-x="-8"
     inkscape:window-y="-8"
     inkscape:window-maximized="1"
     inkscape:current-layer="layer2">
    <inkscape:grid
       id="grid4"
       units="mm"
       originx="0"
       originy="0"
       spacingx="0.99999996"
       spacingy="0.99999996"
       empcolor="#0099e5"
       empopacity="0.30196078"
       color="#0099e5"
       opacity="0.14901961"
       empspacing="5"
       dotted="false"
       gridanglex="30"
       gridanglez="30"
       visible="true" />
  </sodipodi:namedview>
  <defs
     id="defs1">
    <inkscape:path-effect
       effect="bspline"
       id="path-effect3"
       is_visible="true"
       lpeversion="1.3"
       weight="33.333333"
       steps="2"
       helper_size="0"
       apply_no_weight="true"
       apply_with_weight="true"
       only_selected="false"
       uniform="false" />
    <rect
       x="3.4170904"
       y="32.218281"
       width="162.79996"
       height="60.043159"
       id="rect2" />
    <rect
       x="1.4644673"
       y="36.367603"
       width="165.24072"
       height="46.618877"
       id="rect1" />
  </defs>
  <g
     inkscape:groupmode="layer"
     id="layer2"
     inkscape:label="Layer 2">
    <path
       style="-inkscape-font-specification:'07LogoTypeGothic7';fill:#312b30;stroke-width:0;stroke-opacity:0.158046"
       d="m 9.2872156,18.566547 q 0,0.255417 -0.2341326,0.31927 -0.3937679,0.117069 -0.8301056,0.170278 -0.4256952,0.05321 -0.8726753,0.05321 -0.7875371,0 -1.4260803,-0.266059 Q 5.2963213,18.56654 4.8493412,18.066349 4.4130035,17.555516 4.1682286,16.831836 3.934096,16.108156 3.934096,15.192913 q 0,-0.904601 0.2234901,-1.628281 0.2234901,-0.734323 0.6491853,-1.234513 0.4363377,-0.510833 1.0642381,-0.776892 0.6385433,-0.276701 1.4473652,-0.276701 0.4469802,0 0.8726754,0.06385 0.4363377,0.05322 0.8194632,0.159635 0.22349,0.06385 0.22349,0.308629 v 0.07449 q 0,0.159636 -0.085137,0.223489 -0.085137,0.05322 -0.2341326,0 -0.7981795,-0.266059 -1.5218606,-0.266059 -0.5321197,0 -0.9684574,0.22349 -0.4256956,0.223489 -0.7343252,0.649182 -0.3086296,0.425695 -0.4789063,1.053595 -0.170279,0.627899 -0.170279,1.426076 0,0.798177 0.170279,1.426076 0.1809203,0.617257 0.5001912,1.053593 0.319272,0.425694 0.7556101,0.649184 0.4363364,0.223489 0.9578149,0.223489 0.7449661,0 1.5431443,-0.266058 0.1489942,-0.05322 0.2341338,0.01068 0.085137,0.05322 0.085137,0.212848 z m 1.9198834,-7.396439 q 0.276702,0 0.276702,0.276702 v 2.735085 q 0.308629,-0.308629 0.723682,-0.489549 0.415054,-0.18092 0.893961,-0.18092 1.032311,0 1.468649,0.532118 0.44698,0.532119 0.44698,1.734705 v 2.947933 q 0,0.276701 -0.276703,0.276701 h -0.489548 q -0.276702,0 -0.276702,-0.276701 v -2.809583 q 0,-0.564044 -0.06385,-0.925885 -0.06385,-0.36184 -0.202205,-0.574687 -0.127709,-0.212847 -0.329915,-0.297986 -0.202205,-0.08514 -0.489549,-0.08514 -0.223491,0 -0.478907,0.148993 -0.244775,0.138351 -0.457623,0.383126 -0.202206,0.234131 -0.340557,0.542759 -0.127708,0.297986 -0.127708,0.606615 v 3.011787 q 0,0.276702 -0.276702,0.276702 h -0.510835 q -0.276702,0 -0.276702,-0.276702 V 11.44681 q 0,-0.276703 0.276702,-0.276703 z m 8.879999,7.407081 q 0,0.244775 -0.22349,0.308628 -0.755609,0.22349 -1.511219,0.22349 -1.362224,0 -2.043337,-0.713038 -0.681112,-0.713038 -0.681112,-2.085903 0,-1.415433 0.649185,-2.107186 0.659828,-0.691754 1.862416,-0.691754 1.181305,0 1.73471,0.691754 0.564046,0.691753 0.564046,2.03269 -0.03193,0.06385 -0.07449,0.106425 -0.04257,0.04257 -0.09578,0.07449 -0.04257,0.03193 -0.106424,0.03193 H 16.69218 q 0.02129,1.138731 0.457623,1.67085 0.44698,0.521476 1.277085,0.521476 0.297988,0 0.617258,-0.06385 0.319273,-0.07449 0.71304,-0.234131 0.329915,-0.117068 0.329915,0.212846 z m -0.691755,-2.607378 q 0,-1.032309 -0.329914,-1.511215 -0.329913,-0.478907 -0.925888,-0.478907 -0.67047,0 -1.03231,0.478907 -0.361842,0.478906 -0.415053,1.511215 z m 5.602143,2.639305 q 0,0.244774 -0.22349,0.308629 -0.319271,0.09578 -0.659827,0.148993 -0.340556,0.04257 -0.681113,0.04257 -1.319656,0 -1.990126,-0.72368 -0.67047,-0.723681 -0.67047,-2.07526 0,-1.351579 0.649185,-2.07526 0.659829,-0.72368 1.91563,-0.72368 0.723683,0 1.372868,0.148993 0.234132,0.04257 0.234132,0.308628 v 0.03193 q 0,0.159636 -0.08514,0.22349 -0.08514,0.05321 -0.234132,0 -0.617258,-0.202205 -1.234516,-0.202205 -0.744967,0 -1.138737,0.553403 -0.383124,0.553402 -0.383124,1.734705 0,1.213229 0.40441,1.75599 0.415053,0.532117 1.213232,0.532117 0.297987,0 0.585331,-0.05322 0.287344,-0.05321 0.606616,-0.18092 0.148993,-0.05321 0.234133,0 0.08514,0.05321 0.08514,0.212848 v 0.03193 z m 1.792175,-7.439008 q 0.276702,0 0.276702,0.276702 v 4.42722 l 2.234899,-2.117829 q 0.148995,-0.138351 0.3512,-0.138351 h 0.340555 q 0.191564,0 0.234133,0.106425 0.04257,0.106424 -0.09578,0.234131 l -2.373252,2.245538 2.415821,2.458386 q 0.138352,0.13835 0.08514,0.244774 -0.04257,0.09578 -0.22349,0.09578 h -0.361841 q -0.202205,0 -0.340557,-0.13835 l -2.266826,-2.309392 v 2.171041 q 0,0.276701 -0.276703,0.276701 h -0.48955 q -0.276702,0 -0.276702,-0.276701 v -7.279372 q 0,-0.276702 0.276702,-0.276702 z m 5.58085,0.212848 q 0.276701,0 0.276701,0.276701 v 6.768539 h 3.362995 q 0.276702,0 0.276702,0.276701 v 0.02129 q 0,0.276702 -0.276702,0.276702 H 31.78518 q -0.276703,0 -0.276703,-0.276702 V 11.65966 q 0,-0.276701 0.276703,-0.276701 z m 5.974618,-0.212848 q 0.276702,0 0.276702,0.276702 v 0.436337 q 0,0.276701 -0.276702,0.276701 h -0.53212 q -0.276702,0 -0.276702,-0.276701 V 11.44681 q 0,-0.276702 0.276702,-0.276702 z m 0,2.447742 q 0.276702,0 0.276702,0.276701 v 4.831631 q 0,0.276701 -0.276702,0.276701 h -0.53212 q -0.276702,0 -0.276702,-0.276701 v -4.831631 q 0,-0.276701 0.276702,-0.276701 z m 1.653821,4.863558 q 0,-0.340555 0.329912,-0.202205 0.404413,0.18092 0.75561,0.266059 0.361842,0.07449 0.734326,0.07449 0.585331,0 0.872675,-0.212847 0.297986,-0.223489 0.297986,-0.744965 0,-0.446979 -0.255418,-0.713039 -0.244773,-0.276701 -0.883317,-0.425694 -1.07488,-0.266059 -1.521862,-0.638542 -0.436336,-0.383125 -0.436336,-0.925885 0,-0.638542 0.532117,-1.042951 0.542763,-0.40441 1.575075,-0.40441 0.851388,0 1.64957,0.244775 0.223489,0.06385 0.223489,0.308628 0,0.148993 -0.08514,0.212848 -0.08514,0.05321 -0.234131,0 -0.415055,-0.148994 -0.776894,-0.212848 -0.351199,-0.06385 -0.713042,-0.06385 -0.553401,0 -0.830103,0.202205 -0.276704,0.202204 -0.276704,0.691754 0,0.436336 0.234132,0.691752 0.234135,0.244774 0.808823,0.372483 0.595973,0.138351 0.989741,0.297986 0.393768,0.159636 0.627899,0.361841 0.244777,0.202204 0.340558,0.45762 0.09578,0.255417 0.09578,0.585331 0,0.638541 -0.564047,1.04295 -0.553406,0.404411 -1.607002,0.404411 -0.468262,0 -0.904601,-0.07449 -0.425694,-0.08514 -0.766252,-0.223489 -0.212847,-0.09578 -0.212847,-0.31927 v -0.01068 z m 6.591878,-6.672758 q 0.276705,0 0.276705,0.276701 v 1.745346 h 1.670848 q 0.276708,0 0.276708,0.276701 0,0.212847 -0.276708,0.212847 h -1.670848 v 2.979861 q 0,0.415053 0.04255,0.670469 0.04255,0.255416 0.138353,0.404409 0.09578,0.138352 0.244775,0.191563 0.159636,0.05322 0.383123,0.05322 0.340562,0 0.670474,-0.106424 0.319268,-0.09578 0.319268,0.223488 0,0.234132 -0.234131,0.276701 -0.202203,0.05322 -0.436338,0.07449 -0.223491,0.02129 -0.446978,0.02129 -0.510837,0 -0.840751,-0.08514 -0.329912,-0.08514 -0.532118,-0.287343 -0.202208,-0.202206 -0.287344,-0.532118 -0.07449,-0.340555 -0.07449,-0.830104 v -3.054358 h -0.883318 q -0.276702,0 -0.276702,-0.276701 0,-0.212847 0.276702,-0.212847 h 0.883318 v -1.745345 q 0,-0.276702 0.276703,-0.276702 h 0.500192 z"
       id="text2"
       aria-label="CheckList" />
    <path
       d="m 19.30488,32.009831 q 0.276701,0 0.276701,0.276701 v 7.066533 q 0,0.276701 -0.276701,0.276701 h -0.542761 q -0.276701,0 -0.276701,-0.276701 v -5.597886 l -1.755991,3.362988 q -0.106425,0.202205 -0.329915,0.202205 h -0.595971 q -0.223491,0 -0.329914,-0.202205 l -1.766633,-3.362988 v 5.597886 q 0,0.276701 -0.276701,0.276701 h -0.510835 q -0.276701,0 -0.276701,-0.276701 v -7.066533 q 0,-0.276701 0.276701,-0.276701 h 0.606616 q 0.22349,0 0.329913,0.202205 l 2.245539,4.246304 2.234899,-4.246304 q 0.106424,-0.202205 0.329912,-0.202205 z m 1.440975,2.735088 q 0,-0.244775 0.202205,-0.308628 0.415051,-0.148993 0.872674,-0.22349 0.457621,-0.07449 0.925885,-0.07449 0.638543,0 1.064238,0.106425 0.425694,0.106424 0.681112,0.340555 0.266058,0.234132 0.372483,0.617257 0.117068,0.372483 0.117068,0.915244 v 3.235281 q 0,0.276701 -0.276703,0.276701 h -0.468263 q -0.276701,0 -0.276701,-0.276701 v -0.340557 q -0.297988,0.340557 -0.755609,0.532118 -0.457623,0.191564 -1.03231,0.191564 -0.393767,0 -0.713038,-0.117068 -0.319271,-0.127708 -0.542761,-0.340556 -0.223489,-0.212847 -0.351198,-0.500191 -0.117068,-0.297987 -0.117068,-0.638543 0,-0.393766 0.170277,-0.734322 0.180921,-0.3512 0.542761,-0.595973 0.372483,-0.255418 0.936528,-0.393768 0.564046,-0.148993 1.340939,-0.148993 h 0.478906 v -0.36184 q 0,-0.361841 -0.06385,-0.595973 -0.06385,-0.244775 -0.202207,-0.383125 -0.13835,-0.148993 -0.361839,-0.202205 -0.22349,-0.06385 -0.542762,-0.06385 -0.372482,0 -0.787535,0.08514 -0.404409,0.08514 -0.893959,0.266059 -0.148993,0.05322 -0.234132,0 -0.08514,-0.06385 -0.08514,-0.212848 z m 2.692519,1.958196 q -1.926269,0 -1.926269,1.372865 0,0.542761 0.234132,0.840747 0.244775,0.297986 0.58533,0.297986 0.329914,0 0.617258,-0.127708 0.287344,-0.13835 0.500192,-0.383125 0.22349,-0.255417 0.340555,-0.606616 0.127708,-0.361839 0.127708,-0.819462 v -0.574687 z m 3.34596,-4.906132 q 0.276702,0 0.276702,0.276703 v 4.427224 l 2.234897,-2.117831 q 0.148993,-0.138351 0.351198,-0.138351 h 0.340556 q 0.191563,0 0.234133,0.106424 0.04256,0.106425 -0.09578,0.234133 l -2.373248,2.245539 2.415818,2.458387 q 0.13835,0.138351 0.08514,0.244774 -0.04256,0.09578 -0.22349,0.09578 h -0.361841 q -0.202205,0 -0.340556,-0.138351 L 27.061039,37.18202 v 2.171044 q 0,0.276701 -0.276702,0.276701 h -0.489549 q -0.276701,0 -0.276701,-0.276701 v -7.279379 q 0,-0.276703 0.276701,-0.276703 z m 8.699053,7.407088 q 0,0.244775 -0.223489,0.308628 -0.755609,0.223491 -1.511217,0.223491 -1.362223,0 -2.043334,-0.713038 -0.681113,-0.71304 -0.681113,-2.085906 0,-1.415433 0.649186,-2.107189 0.659826,-0.691752 1.862414,-0.691752 1.181302,0 1.734706,0.691752 0.564045,0.691756 0.564045,2.032694 -0.03193,0.06385 -0.07449,0.106424 -0.04256,0.04256 -0.09578,0.07449 -0.04256,0.03193 -0.106424,0.03193 h -3.469412 q 0.02129,1.138733 0.457621,1.670852 0.44698,0.521476 1.277085,0.521476 0.297986,0 0.617257,-0.06385 0.319272,-0.07449 0.713038,-0.234133 0.329914,-0.117068 0.329914,0.212848 z m -0.691754,-2.60738 q 0,-1.03231 -0.329913,-1.511216 -0.329913,-0.478908 -0.925886,-0.478908 -0.670469,0 -1.03231,0.478908 -0.36184,0.478906 -0.415051,1.511216 z m 5.144512,-2.351963 q 0.170278,0 0.170278,0.276701 v 0.01068 q 0,0.276701 -0.276701,0.276701 h -0.06385 q -1.000382,0 -1.57507,0.574688 -0.564045,0.574687 -0.564045,1.702778 v 2.266825 q 0,0.276702 -0.276702,0.276702 h -0.542761 q -0.276701,0 -0.276701,-0.276702 v -4.831634 q 0,-0.276702 0.276701,-0.276702 h 0.500191 q 0.276701,0 0.276701,0.276702 v 0.606615 q 0.340557,-0.393767 0.915244,-0.638542 0.585331,-0.244775 1.266442,-0.244775 h 0.170278 z"
       id="text4"
       style="-inkscape-font-specification:'07LogoTypeGothic7';fill:#312b30;stroke:#312b30;stroke-width:0"
       aria-label="Maker" />
    <path
       id="rect4"
       style="color:#000000;fill:#312b30;stroke-width:1.73235;-inkscape-stroke:none"
       d="m 23.198837,22.650231 v 6.056163 h 5.880715 v -4.672153 l -1.136933,1.247041 v 2.288183 h -3.603267 v -3.778724 h 2.456489 l 1.041143,-1.14051 z" />
    <path
       style="display:inline;fill:none;fill-opacity:1;stroke:#312b30;stroke-width:1.17621;stroke-dasharray:none;stroke-opacity:1"
       d="m 24.736316,24.697059 1.332192,1.332188 3.04501,-3.378049"
       id="path4" />
  </g>
</svg>
