<?xml version="1.0" encoding="UTF-8" standalone="no"?>
<!-- Created with Inkscape (http://www.inkscape.org/) -->

<svg
   width="342pt"
   height="342pt"
   viewBox="0 0 120.64998 120.64999"
   version="1.1"
   id="svg1"
   inkscape:version="1.3.2 (091e20e, 2023-11-25, custom)"
   sodipodi:docname="splash.svg"
   xmlns:inkscape="http://www.inkscape.org/namespaces/inkscape"
   xmlns:sodipodi="http://sodipodi.sourceforge.net/DTD/sodipodi-0.dtd"
   xmlns="http://www.w3.org/2000/svg"
   xmlns:svg="http://www.w3.org/2000/svg">
  <sodipodi:namedview
     id="namedview1"
     pagecolor="#ffffff"
     bordercolor="#000000"
     borderopacity="0.25"
     inkscape:showpageshadow="2"
     inkscape:pageopacity="0.0"
     inkscape:pagecheckerboard="0"
     inkscape:deskcolor="#d1d1d1"
     inkscape:document-units="mm"
     showgrid="true"
     showguides="true"
     inkscape:zoom="1.4485269"
     inkscape:cx="197.09679"
     inkscape:cy="254.39638"
     inkscape:window-width="1920"
     inkscape:window-height="1009"
     inkscape:window-x="-8"
     inkscape:window-y="-8"
     inkscape:window-maximized="1"
     inkscape:current-layer="layer2">
    <inkscape:grid
       id="grid4"
       units="mm"
       originx="0"
       originy="0"
       spacingx="0.99999996"
       spacingy="0.99999996"
       empcolor="#0099e5"
       empopacity="0.30196078"
       color="#0099e5"
       opacity="0.14901961"
       empspacing="5"
       dotted="false"
       gridanglex="30"
       gridanglez="30"
       visible="true" />
  </sodipodi:namedview>
  <defs
     id="defs1">
    <inkscape:path-effect
       effect="bspline"
       id="path-effect3"
       is_visible="true"
       lpeversion="1.3"
       weight="33.333333"
       steps="2"
       helper_size="0"
       apply_no_weight="true"
       apply_with_weight="true"
       only_selected="false"
       uniform="false" />
    <rect
       x="3.4170904"
       y="32.218281"
       width="162.79996"
       height="60.043159"
       id="rect2" />
    <rect
       x="1.4644673"
       y="36.367603"
       width="165.24072"
       height="46.618877"
       id="rect1" />
  </defs>
  <g
     inkscape:groupmode="layer"
     id="layer2"
     inkscape:label="Layer 2">
    <path
       style="-inkscape-font-specification:'07LogoTypeGothic7';fill:#312b30;stroke-width:0;stroke-opacity:0.158046"
       d="m 27.668796,46.069107 q 0,0.492877 -0.451804,0.616095 -0.759853,0.225902 -1.601851,0.328585 -0.821462,0.102682 -1.683998,0.102682 -1.519705,0 -2.751898,-0.513413 -1.211657,-0.533949 -2.074192,-1.499164 -0.841999,-0.985753 -1.31434,-2.382235 -0.451804,-1.396483 -0.451804,-3.162622 0,-1.745603 0.431268,-3.142085 0.431267,-1.417019 1.252729,-2.382235 0.841999,-0.985752 2.053656,-1.499165 1.232193,-0.533949 2.792971,-0.533949 0.862536,0 1.683998,0.123219 0.841999,0.102682 1.581314,0.308047 0.431268,0.123219 0.431268,0.595559 v 0.143756 q 0,0.308047 -0.164292,0.431266 -0.164292,0.102683 -0.451805,0 -1.540241,-0.513412 -2.936727,-0.513412 -1.026827,0 -1.868826,0.431266 -0.821462,0.431267 -1.417022,1.252727 -0.595561,0.82146 -0.924145,2.033114 -0.328585,1.211654 -0.328585,2.751892 0,1.540238 0.328585,2.751892 0.349121,1.191117 0.965218,2.033114 0.616096,0.82146 1.458095,1.252727 0.841998,0.431266 1.84829,0.431266 1.437559,0 2.9778,-0.513412 0.287512,-0.102683 0.451805,0.02054 0.164292,0.102682 0.164292,0.41073 z m 3.704789,-14.272872 q 0.53395,0 0.53395,0.53395 v 5.277882 q 0.59556,-0.595559 1.396486,-0.94468 0.800926,-0.34912 1.725071,-0.34912 1.992046,0 2.834045,1.026826 0.862535,1.026825 0.862535,3.34745 v 5.688612 q 0,0.533949 -0.533951,0.533949 H 37.24704 q -0.533951,0 -0.533951,-0.533949 v -5.421638 q 0,-1.088434 -0.123219,-1.786675 -0.123219,-0.698242 -0.390194,-1.108972 -0.246439,-0.41073 -0.636634,-0.575022 -0.390194,-0.164293 -0.944681,-0.164293 -0.431268,0 -0.924145,0.287512 -0.472341,0.266974 -0.883072,0.739314 -0.390195,0.451803 -0.65717,1.047362 -0.246439,0.575022 -0.246439,1.17058 v 5.811832 q 0,0.533949 -0.53395,0.533949 H 30.38783 q -0.53395,0 -0.53395,-0.533949 v -14.04697 q 0,-0.53395 0.53395,-0.53395 z m 17.135689,14.293408 q 0,0.472341 -0.431268,0.595559 -1.458095,0.431267 -2.916191,0.431267 -2.628678,0 -3.943018,-1.375946 -1.314339,-1.375946 -1.314339,-4.025155 0,-2.731355 1.252729,-4.066228 1.273267,-1.334873 3.593897,-1.334873 2.279558,0 3.347459,1.334873 1.088437,1.334873 1.088437,3.922472 -0.06161,0.12322 -0.143756,0.205365 -0.08215,0.08215 -0.184828,0.143756 -0.08215,0.06161 -0.205366,0.06161 h -6.694917 q 0.04107,2.197406 0.883072,3.224232 0.862535,1.006289 2.464386,1.006289 0.575024,0 1.19112,-0.12322 0.616097,-0.143755 1.37595,-0.451803 0.636633,-0.225901 0.636633,0.41073 z M 47.174398,41.0582 q 0,-1.992041 -0.636634,-2.916184 -0.636633,-0.924143 -1.78668,-0.924143 -1.293803,0 -1.992045,0.924143 -0.698244,0.924143 -0.800926,2.916184 z m 10.810427,5.093053 q 0,0.47234 -0.431267,0.595559 -0.616097,0.184829 -1.273267,0.287511 -0.657169,0.08215 -1.314339,0.08215 -2.546533,0 -3.840336,-1.396482 -1.293803,-1.396483 -1.293803,-4.004619 0,-2.608136 1.25273,-4.004619 1.273267,-1.396482 3.69658,-1.396482 1.396486,0 2.649216,0.287511 0.451804,0.08215 0.451804,0.595559 v 0.06161 q 0,0.308048 -0.164293,0.431267 -0.164292,0.102682 -0.451804,0 -1.19112,-0.390194 -2.38224,-0.390194 -1.437559,0 -2.197412,1.067899 -0.739315,1.067898 -0.739315,3.34745 0,2.341161 0.780389,3.388524 0.800925,1.026825 2.341167,1.026825 0.575023,0 1.129511,-0.102683 0.554486,-0.102682 1.170583,-0.349121 0.287512,-0.102682 0.451804,0 0.164292,0.102683 0.164292,0.41073 v 0.06161 z m 3.458348,-14.355018 q 0.533951,0 0.533951,0.53395 v 8.543186 L 66.2898,36.786607 q 0.287512,-0.266975 0.677707,-0.266975 h 0.657169 q 0.369659,0 0.451804,0.205365 0.08215,0.205365 -0.184829,0.451803 l -4.579651,4.333203 4.661797,4.743933 q 0.266976,0.266975 0.164293,0.47234 -0.08215,0.184828 -0.431268,0.184828 H 67.00858 q -0.390195,0 -0.65717,-0.266975 l -4.374286,-4.456422 v 4.189448 q 0,0.533949 -0.533951,0.533949 h -0.944681 q -0.533951,0 -0.533951,-0.533949 v -14.04697 q 0,-0.53395 0.533951,-0.53395 z m 10.769339,0.410731 q 0.53395,0 0.53395,0.533949 v 13.061218 h 6.489552 q 0.533951,0 0.533951,0.533949 v 0.04107 q 0,0.533949 -0.533951,0.533949 h -8.153012 q -0.533951,0 -0.533951,-0.533949 V 32.740915 q 0,-0.533949 0.533951,-0.533949 z m 11.529189,-0.410731 q 0.533951,0 0.533951,0.53395 v 0.841997 q 0,0.533949 -0.533951,0.533949 h -1.026828 q -0.53395,0 -0.53395,-0.533949 v -0.841997 q 0,-0.53395 0.53395,-0.53395 z m 0,4.723397 q 0.533951,0 0.533951,0.533949 v 9.323574 q 0,0.533949 -0.533951,0.533949 h -1.026828 q -0.53395,0 -0.53395,-0.533949 v -9.323574 q 0,-0.533949 0.53395,-0.533949 z m 3.19137,9.385184 q 0,-0.657169 0.63663,-0.390194 0.780395,0.34912 1.458097,0.513412 0.698245,0.143756 1.417025,0.143756 1.12951,0 1.683997,-0.41073 0.575023,-0.431267 0.575023,-1.437556 0,-0.862533 -0.49288,-1.375946 -0.472337,-0.533949 -1.704533,-0.82146 -2.074191,-0.513413 -2.936729,-1.23219 -0.841995,-0.739315 -0.841995,-1.786676 0,-1.232191 1.026824,-2.012578 1.047367,-0.780387 3.039415,-0.780387 1.642919,0 3.183166,0.47234 0.431265,0.123218 0.431265,0.595558 0,0.287511 -0.164293,0.410731 -0.164293,0.102682 -0.451801,0 -0.800931,-0.287512 -1.499168,-0.410731 -0.677709,-0.123219 -1.375954,-0.123219 -1.067896,0 -1.601847,0.390194 -0.533952,0.390193 -0.533952,1.334873 0,0.841997 0.451802,1.334873 0.451808,0.472339 1.560782,0.718778 1.150046,0.266974 1.909898,0.575021 0.759852,0.308048 1.211653,0.698242 0.472345,0.390193 0.657174,0.883069 0.184829,0.492877 0.184829,1.129508 0,1.232191 -1.088439,2.012578 -1.067903,0.780387 -3.101022,0.780387 -0.903603,0 -1.745605,-0.143755 -0.821459,-0.164293 -1.478633,-0.431267 -0.410729,-0.184829 -0.410729,-0.616095 v -0.02054 z m 12.720315,-12.87639 q 0.533954,0 0.533954,0.533949 v 3.367987 h 3.22423 q 0.53396,0 0.53396,0.533949 0,0.41073 -0.53396,0.41073 h -3.22423 v 5.750222 q 0,0.800924 0.0821,1.2938 0.0821,0.492876 0.26698,0.780387 0.18483,0.266975 0.47234,0.369657 0.30805,0.102683 0.73931,0.102683 0.65718,0 1.29381,-0.205365 0.61609,-0.184829 0.61609,0.431266 0,0.451803 -0.4518,0.53395 -0.39019,0.102682 -0.842,0.143755 -0.43127,0.04107 -0.86253,0.04107 -0.98576,0 -1.622394,-0.164291 -0.63663,-0.164292 -1.026824,-0.554486 -0.390201,-0.390194 -0.554487,-1.026825 -0.143758,-0.657168 -0.143758,-1.601848 v -5.893977 h -1.704533 q -0.533951,0 -0.533951,-0.533949 0,-0.41073 0.533951,-0.41073 h 1.704533 v -3.367987 q 0,-0.53395 0.533952,-0.53395 h 0.965217 z"
       id="text2"
       aria-label="CheckList" />
    <path
       d="m 46.99983,72.010543 q 0.53395,0 0.53395,0.53395 v 13.636251 q 0,0.533949 -0.53395,0.533949 h -1.047363 q -0.533949,0 -0.533949,-0.533949 V 75.378533 l -3.388526,6.489541 q -0.205365,0.390194 -0.636633,0.390194 h -1.150044 q -0.431268,0 -0.636633,-0.390194 L 36.19762,75.378533 v 10.802211 q 0,0.533949 -0.53395,0.533949 h -0.985754 q -0.533948,0 -0.533948,-0.533949 V 72.544493 q 0,-0.53395 0.533948,-0.53395 h 1.170582 q 0.431268,0 0.636633,0.390195 l 4.333206,8.194071 4.31267,-8.194071 q 0.205365,-0.390195 0.636631,-0.390195 z m 2.780643,5.277886 q 0,-0.47234 0.390194,-0.595559 0.800923,-0.287511 1.683994,-0.431267 0.883071,-0.143755 1.786677,-0.143755 1.232192,0 2.053653,0.205365 0.82146,0.205365 1.314338,0.657168 0.513412,0.451804 0.718778,1.191119 0.225901,0.718778 0.225901,1.766141 v 6.243103 q 0,0.533949 -0.533949,0.533949 h -0.903608 q -0.533948,0 -0.533948,-0.533949 v -0.65717 q -0.575024,0.65717 -1.458094,1.026826 -0.883071,0.369659 -1.992043,0.369659 -0.759851,0 -1.375946,-0.225903 -0.616096,-0.246438 -1.047363,-0.657168 -0.431266,-0.41073 -0.677705,-0.965216 -0.225901,-0.575024 -0.225901,-1.232192 0,-0.759851 0.328583,-1.41702 0.349122,-0.677706 1.047363,-1.150046 0.718778,-0.492876 1.807214,-0.759851 1.088436,-0.287511 2.587602,-0.287511 h 0.924143 v -0.698241 q 0,-0.698243 -0.123218,-1.150046 -0.12322,-0.47234 -0.390195,-0.739315 -0.266975,-0.287511 -0.698241,-0.390194 -0.431268,-0.123218 -1.047364,-0.123218 -0.718777,0 -1.519702,0.164291 -0.780387,0.164292 -1.725068,0.513413 -0.287511,0.102687 -0.451804,0 -0.164291,-0.123218 -0.164291,-0.410731 z m 5.19574,3.77872 q -3.71711,0 -3.71711,2.649212 0,1.047362 0.451802,1.622385 0.472341,0.575023 1.12951,0.575023 0.636632,0 1.191118,-0.246439 0.554486,-0.266975 0.965216,-0.739314 0.431268,-0.492877 0.657169,-1.170583 0.246438,-0.698241 0.246438,-1.581312 v -1.108972 z m 6.456683,-9.467336 q 0.53395,0 0.53395,0.53395 v 8.543192 l 4.31267,-4.086767 q 0.287511,-0.266975 0.677705,-0.266975 h 0.657168 q 0.369658,0 0.451804,0.205365 0.08214,0.205365 -0.184829,0.451803 l -4.579645,4.333207 4.661791,4.743936 q 0.266975,0.266975 0.164293,0.47234 -0.08214,0.184829 -0.431267,0.184829 h -0.698243 q -0.390193,0 -0.657168,-0.266975 l -4.374279,-4.456425 v 4.189451 q 0,0.533949 -0.53395,0.533949 h -0.94468 q -0.53395,0 -0.53395,-0.533949 V 72.133763 q 0,-0.53395 0.53395,-0.53395 z m 16.786518,14.293419 q 0,0.472341 -0.431267,0.595559 -1.458094,0.431268 -2.916187,0.431268 -2.628674,0 -3.943011,-1.375947 -1.314339,-1.375948 -1.314339,-4.025159 0,-2.731357 1.252729,-4.066232 1.273264,-1.334873 3.593891,-1.334873 2.279554,0 3.347453,1.334873 1.088436,1.334875 1.088436,3.922477 -0.06161,0.123218 -0.143756,0.205365 -0.08214,0.08214 -0.184829,0.143755 -0.08214,0.06161 -0.205365,0.06161 h -6.694906 q 0.04108,2.197408 0.88307,3.224234 0.862535,1.006289 2.464383,1.006289 0.575023,0 1.191119,-0.123219 0.616096,-0.143755 1.375947,-0.451804 0.636632,-0.225901 0.636632,0.410731 z M 76.88454,80.861784 q 0,-1.992043 -0.636633,-2.916185 -0.636632,-0.924145 -1.786677,-0.924145 -1.293801,0 -1.992043,0.924145 -0.698241,0.924142 -0.800924,2.916185 z m 9.927338,-4.538571 q 0.328584,0 0.328584,0.53395 v 0.02053 q 0,0.53395 -0.533949,0.53395 h -0.12322 q -1.930433,0 -3.039405,1.108972 -1.088435,1.108972 -1.088435,3.285844 v 4.374279 q 0,0.53395 -0.53395,0.53395 h -1.047362 q -0.53395,0 -0.53395,-0.53395 v -9.323579 q 0,-0.53395 0.53395,-0.53395 h 0.965216 q 0.533949,0 0.533949,0.53395 v 1.170582 q 0.657169,-0.759851 1.766141,-1.232192 1.129509,-0.47234 2.443846,-0.47234 h 0.328585 z"
       id="text4"
       style="-inkscape-font-specification:'07LogoTypeGothic7';fill:#312b30;stroke:#312b30;stroke-width:0"
       aria-label="Maker" />
    <path
       id="rect4"
       style="color:#000000;fill:#312b30;stroke-width:3.34292;-inkscape-stroke:none"
       d="M 54.513981,53.949371 V 65.63592 h 11.347985 v -9.015831 l -2.193933,2.406408 v 4.415495 h -6.953209 v -7.291783 h 4.740275 l 2.009089,-2.200838 z" />
    <path
       style="display:inline;fill:none;fill-opacity:1;stroke:#312b30;stroke-width:2.26972;stroke-dasharray:none;stroke-opacity:1"
       d="m 57.480846,57.899124 2.570724,2.570718 5.875938,-6.518603"
       id="path4" />
  </g>
</svg>
